<svg id="Calque_1" data-name="Calque 1" xmlns="http://www.w3.org/2000/svg" viewBox="0 0 24 24"><defs><style>.cls-1{fill:#7289da;}.cls-2{fill:#fff;}</style></defs><rect class="cls-1" width="24" height="24" rx="2.91"/><path class="cls-2" d="M18.12,7.83a6.81,6.81,0,0,0-3.86-1.44l-.19.22a9.16,9.16,0,0,1,3.42,1.74A11.44,11.44,0,0,0,13.36,7a12.1,12.1,0,0,0-2.77,0,2,2,0,0,0-.24,0A10.36,10.36,0,0,0,7.24,8c-.51.24-.81.4-.81.4A9.36,9.36,0,0,1,10,6.55L9.9,6.39A6.77,6.77,0,0,0,6.05,7.83a18.34,18.34,0,0,0-2,8,5,5,0,0,0,4.19,2.08l.92-1.14a4.22,4.22,0,0,1-2.4-1.62,3.44,3.44,0,0,0,.38.24l0,0,.13.07a7.31,7.31,0,0,0,1,.46,11.3,11.3,0,0,0,2,.59,9.83,9.83,0,0,0,3.56,0,9.67,9.67,0,0,0,2-.59,7.86,7.86,0,0,0,1.57-.81A4.32,4.32,0,0,1,15,16.8c.41.52.91,1.11.91,1.11a5,5,0,0,0,4.19-2.08A18.41,18.41,0,0,0,18.12,7.83Zm-8.6,6.72a1.53,1.53,0,0,1,0-3,1.53,1.53,0,0,1,0,3Zm5,0A1.53,1.53,0,1,1,15.92,13,1.46,1.46,0,0,1,14.52,14.55Z" transform="translate(0 0)"/></svg>